<svg id="svg" version="1.1" xmlns="http://www.w3.org/2000/svg" xmlns:xlink="http://www.w3.org/1999/xlink" width="400" height="400" viewBox="0, 0, 400,400"><g id="svgg"><path id="path0" d="M83.746 20.068 C 83.276 20.295,82.691 20.922,82.446 21.460 C 81.810 22.855,81.808 377.142,82.444 378.537 C 83.328 380.478,78.404 380.400,200.000 380.400 C 321.596 380.400,316.672 380.478,317.556 378.537 C 318.190 377.145,318.190 22.855,317.556 21.463 C 317.312 20.927,316.673 20.288,316.137 20.044 C 314.807 19.438,84.997 19.462,83.746 20.068 M315.474 22.070 L 316.400 22.939 316.400 199.944 L 316.400 376.948 315.530 377.874 L 314.661 378.800 200.056 378.800 L 85.452 378.800 84.526 377.930 L 83.600 377.061 83.600 200.056 L 83.600 23.052 84.470 22.126 L 85.339 21.200 199.944 21.200 L 314.548 21.200 315.474 22.070 M92.255 29.855 L 91.200 30.909 91.200 200.000 L 91.200 369.091 92.255 370.145 L 93.309 371.200 200.000 371.200 L 306.691 371.200 307.745 370.145 L 308.800 369.091 308.800 200.000 L 308.800 30.909 307.745 29.855 L 306.691 28.800 200.000 28.800 L 93.309 28.800 92.255 29.855 M306.720 30.880 C 307.420 31.580,307.420 368.420,306.720 369.120 C 306.021 369.819,93.979 369.819,93.280 369.120 C 92.580 368.420,92.580 31.580,93.280 30.880 C 93.979 30.181,306.021 30.181,306.720 30.880 M238.920 70.007 C 238.296 71.660,236.397 72.369,231.784 72.672 C 227.814 72.933,227.543 73.063,226.924 75.000 C 226.691 75.730,226.083 76.404,225.370 76.721 C 222.962 77.793,223.015 77.692,222.699 81.756 C 222.333 86.482,221.649 88.300,220.007 88.920 C 218.742 89.397,218.391 90.000,219.378 90.000 C 221.427 90.000,222.789 93.605,222.797 99.051 C 222.800 101.313,223.125 101.754,225.180 102.284 C 226.301 102.574,226.626 102.899,226.916 104.020 C 227.454 106.106,227.875 106.400,230.316 106.400 C 235.713 106.400,239.200 107.756,239.200 109.854 C 239.200 110.154,239.380 110.400,239.600 110.400 C 239.820 110.400,240.000 110.154,240.000 109.854 C 240.000 107.752,243.487 106.400,248.909 106.400 C 251.324 106.400,251.554 106.233,252.210 104.010 C 252.534 102.913,252.913 102.534,254.010 102.210 C 256.233 101.554,256.400 101.324,256.400 98.909 C 256.400 93.487,257.752 90.000,259.854 90.000 C 260.154 90.000,260.400 89.820,260.400 89.600 C 260.400 89.380,260.154 89.200,259.854 89.200 C 257.756 89.200,256.400 85.713,256.400 80.316 C 256.400 77.875,256.106 77.454,254.020 76.916 C 252.899 76.626,252.574 76.301,252.284 75.180 C 251.754 73.125,251.313 72.800,249.051 72.797 C 243.605 72.789,240.000 71.427,240.000 69.378 C 240.000 68.391,239.397 68.742,238.920 70.007 M195.780 114.122 L 193.760 114.520 193.280 117.049 C 192.679 120.216,192.679 121.383,193.279 124.547 L 193.758 127.073 196.003 127.536 C 198.823 128.119,200.651 128.121,203.773 127.546 L 206.238 127.092 206.719 124.556 C 207.320 121.386,207.321 120.217,206.723 117.066 L 206.247 114.553 203.734 114.077 C 200.879 113.535,198.696 113.547,195.780 114.122 M172.281 143.133 C 171.397 144.143,172.677 145.403,173.600 144.431 C 174.134 143.869,174.127 143.727,173.533 143.133 C 172.909 142.509,172.826 142.509,172.281 143.133 " stroke="none" fill="#cccccc" fill-rule="evenodd"></path><path id="path1" d="M0.000 200.000 L 0.000 400.000 200.000 400.000 L 400.000 400.000 400.000 200.000 L 400.000 0.000 200.000 0.000 L 0.000 0.000 0.000 200.000 M317.739 19.549 C 318.761 20.397,318.761 379.603,317.739 380.451 C 317.181 380.914,298.644 381.000,200.000 381.000 C 101.356 381.000,82.819 380.914,82.261 380.451 C 81.382 379.721,81.221 20.409,82.100 19.687 C 82.375 19.461,83.050 19.193,83.600 19.091 C 86.444 18.563,317.095 19.015,317.739 19.549 M93.600 200.000 L 93.600 368.800 200.000 368.800 L 306.400 368.800 306.400 200.000 L 306.400 31.200 200.000 31.200 L 93.600 31.200 93.600 200.000 M246.600 66.569 C 247.480 66.939,248.650 67.670,249.200 68.193 C 249.750 68.715,250.740 69.271,251.400 69.428 C 253.496 69.925,254.845 70.816,255.361 72.042 C 255.641 72.707,256.467 73.535,257.231 73.917 C 258.311 74.456,258.769 75.067,259.400 76.811 C 259.840 78.027,260.729 79.708,261.375 80.547 C 262.098 81.485,262.750 83.023,263.067 84.536 C 264.168 89.789,263.425 95.993,261.375 98.653 C 260.729 99.492,259.840 101.173,259.400 102.389 C 258.776 104.114,258.307 104.746,257.266 105.266 C 256.532 105.632,255.632 106.532,255.266 107.266 C 254.746 108.307,254.114 108.776,252.389 109.400 C 251.173 109.840,249.492 110.729,248.653 111.375 C 244.836 114.316,234.364 114.316,230.547 111.375 C 229.708 110.729,228.027 109.840,226.811 109.400 C 225.067 108.769,224.456 108.311,223.917 107.231 C 223.535 106.467,222.707 105.641,222.042 105.361 C 220.822 104.848,219.929 103.503,219.429 101.422 C 219.273 100.774,218.637 99.664,218.015 98.956 C 214.803 95.298,214.807 84.218,218.021 80.173 C 218.668 79.359,219.391 77.976,219.627 77.100 C 220.090 75.380,221.590 73.600,222.576 73.600 C 222.913 73.600,223.447 72.982,223.763 72.227 C 224.334 70.861,225.624 69.946,227.669 69.456 C 228.257 69.315,229.247 68.777,229.869 68.260 C 233.074 65.594,242.115 64.680,246.600 66.569 M203.268 107.652 C 207.971 108.661,213.600 115.824,213.600 120.800 C 213.600 127.321,206.521 134.400,200.000 134.400 C 193.479 134.400,186.400 127.321,186.400 120.800 C 186.400 117.016,187.096 115.644,190.996 111.738 C 195.485 107.242,197.785 106.476,203.268 107.652 M176.158 137.540 C 180.863 140.224,181.178 146.318,176.780 149.556 C 171.752 153.257,163.972 147.578,166.173 141.814 C 167.841 137.447,172.499 135.453,176.158 137.540 " stroke="none" fill="#fcfcfc" fill-rule="evenodd"></path><path id="path2" d="M84.470 22.126 L 83.600 23.052 83.600 200.056 L 83.600 377.061 84.526 377.930 L 85.452 378.800 200.056 378.800 L 314.661 378.800 315.530 377.874 L 316.400 376.948 316.400 199.944 L 316.400 22.939 315.474 22.070 L 314.548 21.200 199.944 21.200 L 85.339 21.200 84.470 22.126 M307.745 29.855 L 308.800 30.909 308.800 200.000 L 308.800 369.091 307.745 370.145 L 306.691 371.200 200.000 371.200 L 93.309 371.200 92.255 370.145 L 91.200 369.091 91.200 200.000 L 91.200 30.909 92.255 29.855 L 93.309 28.800 200.000 28.800 L 306.691 28.800 307.745 29.855 " stroke="none" fill="#040404" fill-rule="evenodd"></path><path id="path3" d="M84.000 19.483 C 82.979 19.860,81.999 20.893,82.027 21.562 C 82.047 22.023,82.169 21.963,82.468 21.346 C 83.342 19.541,79.365 19.600,200.000 19.600 C 320.635 19.600,316.658 19.541,317.532 21.346 C 317.831 21.963,317.953 22.023,317.973 21.562 C 317.988 21.211,317.621 20.581,317.158 20.162 C 316.334 19.416,85.997 18.745,84.000 19.483 M81.798 200.000 C 81.798 297.790,81.844 337.795,81.900 288.900 C 81.956 240.005,81.956 159.995,81.900 111.100 C 81.844 62.205,81.798 102.210,81.798 200.000 M318.198 200.000 C 318.198 297.790,318.244 337.795,318.300 288.900 C 318.356 240.005,318.356 159.995,318.300 111.100 C 318.244 62.205,318.198 102.210,318.198 200.000 M93.280 30.880 C 92.580 31.580,92.580 368.420,93.280 369.120 C 93.979 369.819,306.021 369.819,306.720 369.120 C 307.420 368.420,307.420 31.580,306.720 30.880 C 306.021 30.181,93.979 30.181,93.280 30.880 M306.600 200.000 L 306.600 369.000 200.000 369.000 L 93.400 369.000 93.298 200.400 C 93.241 107.670,93.281 31.575,93.385 31.299 C 93.537 30.900,115.088 30.819,200.088 30.899 L 306.600 31.000 306.600 200.000 M237.040 67.618 C 235.940 67.805,234.358 68.469,233.437 69.130 C 231.930 70.213,230.405 70.793,227.500 71.389 C 226.798 71.533,226.050 72.170,225.432 73.149 C 224.899 73.993,223.825 75.060,223.045 75.521 C 222.130 76.060,221.544 76.756,221.395 77.479 C 220.791 80.408,220.217 81.925,219.147 83.413 C 217.687 85.447,217.098 88.718,217.619 91.900 C 217.826 93.165,217.996 94.220,217.998 94.245 C 217.999 94.270,218.515 94.938,219.144 95.729 C 220.176 97.028,220.699 98.421,221.385 101.700 C 221.533 102.406,222.180 103.156,223.196 103.798 C 224.066 104.347,225.044 105.311,225.370 105.941 C 225.982 107.125,226.838 107.572,230.116 108.418 C 231.170 108.690,232.656 109.408,233.418 110.014 C 236.322 112.322,242.878 112.322,245.782 110.014 C 246.544 109.408,248.030 108.690,249.084 108.418 C 252.387 107.565,253.148 107.154,253.957 105.782 C 254.390 105.049,255.271 104.177,255.916 103.844 C 257.124 103.219,257.569 102.373,258.418 99.084 C 258.690 98.030,259.408 96.544,260.014 95.782 C 260.724 94.889,261.265 93.545,261.538 91.998 C 262.108 88.758,261.490 85.275,260.014 83.418 C 259.408 82.656,258.690 81.170,258.418 80.116 C 257.572 76.838,257.125 75.982,255.941 75.370 C 255.311 75.044,254.347 74.066,253.798 73.196 C 253.151 72.172,252.412 71.537,251.700 71.393 C 248.878 70.824,246.459 69.928,245.812 69.214 C 244.517 67.782,240.442 67.041,237.040 67.618 M240.000 69.378 C 240.000 71.427,243.605 72.789,249.051 72.797 C 251.313 72.800,251.754 73.125,252.284 75.180 C 252.574 76.301,252.899 76.626,254.020 76.916 C 256.106 77.454,256.400 77.875,256.400 80.316 C 256.400 85.713,257.756 89.200,259.854 89.200 C 260.154 89.200,260.400 89.380,260.400 89.600 C 260.400 89.820,260.154 90.000,259.854 90.000 C 257.752 90.000,256.400 93.487,256.400 98.909 C 256.400 101.324,256.233 101.554,254.010 102.210 C 252.913 102.534,252.534 102.913,252.210 104.010 C 251.554 106.233,251.324 106.400,248.909 106.400 C 243.487 106.400,240.000 107.752,240.000 109.854 C 240.000 110.154,239.820 110.400,239.600 110.400 C 239.380 110.400,239.200 110.154,239.200 109.854 C 239.200 107.756,235.713 106.400,230.316 106.400 C 227.875 106.400,227.454 106.106,226.916 104.020 C 226.626 102.899,226.301 102.574,225.180 102.284 C 223.125 101.754,222.800 101.313,222.797 99.051 C 222.789 93.605,221.427 90.000,219.378 90.000 C 218.391 90.000,218.742 89.397,220.007 88.920 C 221.649 88.300,222.333 86.482,222.699 81.756 C 223.015 77.692,222.962 77.793,225.370 76.721 C 226.083 76.404,226.691 75.730,226.924 75.000 C 227.543 73.063,227.814 72.933,231.784 72.672 C 236.397 72.369,238.296 71.660,238.920 70.007 C 239.397 68.742,240.000 68.391,240.000 69.378 M195.991 110.500 C 188.400 116.321,186.458 121.290,190.137 125.486 C 192.251 127.897,195.685 131.071,197.200 132.014 C 197.530 132.220,198.790 132.388,200.000 132.388 C 201.210 132.388,202.470 132.220,202.800 132.014 C 205.083 130.593,209.793 125.883,211.214 123.600 C 212.135 122.121,211.657 118.561,210.300 116.791 C 206.410 111.718,202.994 109.200,200.000 109.200 C 198.004 109.200,197.454 109.379,195.991 110.500 M203.734 114.077 L 206.247 114.553 206.723 117.066 C 207.321 120.217,207.320 121.386,206.719 124.556 L 206.238 127.092 203.773 127.546 C 200.651 128.121,198.823 128.119,196.003 127.536 L 193.758 127.073 193.279 124.547 C 192.679 121.383,192.679 120.216,193.280 117.049 L 193.760 114.520 195.780 114.122 C 198.696 113.547,200.879 113.535,203.734 114.077 M169.936 140.736 C 167.114 143.558,167.088 143.887,169.483 146.448 C 172.568 149.746,173.029 149.771,176.000 146.800 C 178.974 143.826,178.968 143.748,175.523 140.300 C 173.108 137.884,172.761 137.911,169.936 140.736 M173.600 144.431 C 172.677 145.403,171.397 144.143,172.281 143.133 C 172.826 142.509,172.909 142.509,173.533 143.133 C 174.127 143.727,174.134 143.869,173.600 144.431 M82.027 378.438 C 81.927 380.786,71.782 380.600,200.000 380.600 C 328.218 380.600,318.073 380.786,317.973 378.438 C 317.953 377.977,317.831 378.037,317.532 378.654 C 316.658 380.459,320.635 380.400,200.000 380.400 C 79.365 380.400,83.342 380.459,82.468 378.654 C 82.169 378.037,82.047 377.977,82.027 378.438 " stroke="none" fill="#d4d4d4" fill-rule="evenodd"></path><path id="path4" d="M83.600 19.091 C 82.104 19.369,81.594 19.961,81.654 21.349 C 81.692 22.218,81.760 22.338,81.877 21.742 C 82.379 19.176,71.089 19.400,200.000 19.400 C 328.911 19.400,317.621 19.176,318.123 21.742 C 318.240 22.338,318.308 22.218,318.346 21.349 C 318.377 20.617,318.125 19.870,317.739 19.549 C 317.095 19.015,86.444 18.563,83.600 19.091 M93.385 31.299 C 93.281 31.575,93.241 107.670,93.298 200.400 L 93.400 369.000 200.000 369.000 L 306.600 369.000 306.600 200.000 L 306.600 31.000 200.088 30.899 C 115.088 30.819,93.537 30.900,93.385 31.299 M306.400 200.000 L 306.400 368.800 200.000 368.800 L 93.600 368.800 93.600 200.000 L 93.600 31.200 200.000 31.200 L 306.400 31.200 306.400 200.000 M234.519 65.994 C 232.556 66.412,231.432 66.960,229.869 68.260 C 229.247 68.777,228.257 69.315,227.669 69.456 C 225.624 69.946,224.334 70.861,223.763 72.227 C 223.447 72.982,222.913 73.600,222.576 73.600 C 221.590 73.600,220.090 75.380,219.627 77.100 C 219.391 77.976,218.668 79.359,218.021 80.173 C 214.807 84.218,214.803 95.298,218.015 98.956 C 218.637 99.664,219.273 100.774,219.429 101.422 C 219.929 103.503,220.822 104.848,222.042 105.361 C 222.707 105.641,223.535 106.467,223.917 107.231 C 224.456 108.311,225.067 108.769,226.811 109.400 C 228.027 109.840,229.708 110.729,230.547 111.375 C 234.364 114.316,244.836 114.316,248.653 111.375 C 249.492 110.729,251.173 109.840,252.389 109.400 C 254.114 108.776,254.746 108.307,255.266 107.266 C 255.632 106.532,256.532 105.632,257.266 105.266 C 258.307 104.746,258.776 104.114,259.400 102.389 C 259.840 101.173,260.729 99.492,261.375 98.653 C 262.098 97.715,262.750 96.177,263.067 94.664 C 264.168 89.411,263.425 83.207,261.375 80.547 C 260.729 79.708,259.840 78.027,259.400 76.811 C 258.769 75.067,258.311 74.456,257.231 73.917 C 256.467 73.535,255.641 72.707,255.361 72.042 C 254.845 70.816,253.496 69.925,251.400 69.428 C 250.740 69.271,249.750 68.715,249.200 68.193 C 246.958 66.063,239.465 64.940,234.519 65.994 M243.852 68.047 C 244.540 68.258,245.422 68.783,245.812 69.214 C 246.459 69.928,248.878 70.824,251.700 71.393 C 252.412 71.537,253.151 72.172,253.798 73.196 C 254.347 74.066,255.311 75.044,255.941 75.370 C 257.125 75.982,257.572 76.838,258.418 80.116 C 258.690 81.170,259.408 82.656,260.014 83.418 C 261.490 85.275,262.108 88.758,261.538 91.998 C 261.265 93.545,260.724 94.889,260.014 95.782 C 259.408 96.544,258.690 98.030,258.418 99.084 C 257.569 102.373,257.124 103.219,255.916 103.844 C 255.271 104.177,254.390 105.049,253.957 105.782 C 253.148 107.154,252.387 107.565,249.084 108.418 C 248.030 108.690,246.544 109.408,245.782 110.014 C 242.878 112.322,236.322 112.322,233.418 110.014 C 232.656 109.408,231.170 108.690,230.116 108.418 C 226.838 107.572,225.982 107.125,225.370 105.941 C 225.044 105.311,224.066 104.347,223.196 103.798 C 222.180 103.156,221.533 102.406,221.385 101.700 C 220.699 98.421,220.176 97.028,219.144 95.729 C 218.515 94.938,217.999 94.270,217.998 94.245 C 217.996 94.220,217.826 93.165,217.619 91.900 C 217.098 88.718,217.687 85.447,219.147 83.413 C 220.217 81.925,220.791 80.408,221.395 77.479 C 221.544 76.756,222.130 76.060,223.045 75.521 C 223.825 75.060,224.899 73.993,225.432 73.149 C 226.050 72.170,226.798 71.533,227.500 71.389 C 230.405 70.793,231.930 70.213,233.437 69.130 C 235.929 67.341,240.117 66.906,243.852 68.047 M196.426 107.681 C 193.812 108.264,187.552 114.549,186.870 117.277 C 185.537 122.605,186.410 125.284,190.963 129.837 C 197.437 136.312,202.563 136.312,209.037 129.837 C 215.515 123.360,215.509 118.253,209.018 111.752 C 204.516 107.243,202.018 106.435,196.426 107.681 M204.009 110.500 C 210.274 115.304,213.138 120.510,211.214 123.600 C 209.793 125.883,205.083 130.593,202.800 132.014 C 202.470 132.220,201.210 132.388,200.000 132.388 C 198.790 132.388,197.530 132.220,197.200 132.014 C 195.685 131.071,192.251 127.897,190.137 125.486 C 187.869 122.899,187.694 119.408,189.700 116.791 C 193.590 111.718,197.006 109.200,200.000 109.200 C 201.996 109.200,202.546 109.379,204.009 110.500 M171.050 136.983 C 167.528 138.249,165.159 142.078,165.990 145.163 C 167.742 151.670,175.664 152.710,179.088 146.881 C 182.071 141.805,176.550 135.006,171.050 136.983 M175.523 140.300 C 178.968 143.748,178.974 143.826,176.000 146.800 C 173.029 149.771,172.568 149.746,169.483 146.448 C 167.088 143.887,167.114 143.558,169.936 140.736 C 172.761 137.911,173.108 137.884,175.523 140.300 M81.654 378.651 C 81.623 379.383,81.875 380.130,82.261 380.451 C 83.252 381.273,316.748 381.273,317.739 380.451 C 318.125 380.130,318.377 379.383,318.346 378.651 C 318.308 377.782,318.240 377.662,318.123 378.258 C 317.621 380.824,328.911 380.600,200.000 380.600 C 71.089 380.600,82.379 380.824,81.877 378.258 C 81.760 377.662,81.692 377.782,81.654 378.651 " stroke="none" fill="#ececec" fill-rule="evenodd"></path></g></svg>